<svg width="199" height="79" viewBox="0 0 199 79" fill="none" xmlns="http://www.w3.org/2000/svg">
<path d="M187.876 55.9774C180.989 55.9774 176.904 51.8137 176.904 44.8283C176.904 37.8626 181.048 33.4622 187.599 33.4622C193.993 33.4622 198.196 37.685 198.196 43.4865C198.196 45.2624 197.19 46.2491 195.374 46.2491H183.692V46.6437C183.692 49.2485 185.409 51.0244 187.935 51.0244C189.849 51.0244 191.171 50.4127 192.73 48.8341C193.46 48.1434 194.032 47.9066 194.901 47.9066C196.321 47.9066 197.525 48.8144 197.525 50.3535C197.525 50.8863 197.367 51.4191 197.052 51.9321C195.631 54.4579 192.158 55.9774 187.876 55.9774ZM183.791 42.2631H191.605C191.487 39.9346 189.928 38.4349 187.738 38.4349C185.567 38.4349 183.969 40.0135 183.791 42.2631Z" fill="#193CB9"/>
<path d="M165.104 55.9774C159.618 55.9774 156.185 54.2014 155.178 51.7348C155.021 51.3204 154.922 50.906 154.922 50.5508C154.922 49.0117 156.066 47.9264 157.645 47.9264C158.75 47.9264 159.677 48.3802 160.684 49.3669C161.868 50.6692 163.21 51.2612 165.163 51.2612C166.979 51.2612 168.143 50.5706 168.143 49.4063C168.143 48.4592 167.452 47.9461 165.499 47.5515L161.749 46.8016C157.507 45.9728 155.317 43.743 155.317 40.4871C155.317 36.1656 159.007 33.4622 164.946 33.4622C169.86 33.4622 173.175 35.5144 173.944 37.8824C174.063 38.2178 174.122 38.5533 174.122 38.8887C174.122 40.2306 173.273 41.2172 171.458 41.2172C170.669 41.2172 169.662 40.9015 169.07 40.349C168.005 39.2834 166.939 38.1784 164.887 38.1784C163.19 38.1784 162.045 38.9282 162.045 40.0924C162.045 41.0199 162.697 41.6119 164.749 42.0263L168.478 42.7564C173.096 43.6641 175.089 45.4203 175.089 48.6368C175.089 53.1358 171.083 55.9774 165.104 55.9774Z" fill="#193CB9"/>
<path d="M141.999 55.9774C135.23 55.9774 131.007 51.8729 131.007 44.7099C131.007 37.685 135.329 33.4622 141.999 33.4622C148.708 33.4622 152.99 37.6653 152.99 44.7099C152.99 51.8927 148.767 55.9774 141.999 55.9774ZM141.999 50.8468C144.386 50.8468 145.906 48.6565 145.906 44.7297C145.906 40.862 144.386 38.5928 141.999 38.5928C139.631 38.5928 138.111 40.862 138.111 44.7297C138.111 48.6565 139.591 50.8468 141.999 50.8468Z" fill="#193CB9"/>
<path d="M114.588 55.78C109.241 55.78 106.024 51.6164 106.024 44.6705C106.024 37.8034 109.3 33.6596 114.667 33.6596C117.785 33.6596 120.153 35.3566 121.1 37.764H121.238V30.1668C121.238 27.72 122.679 26.536 124.731 26.536C126.783 26.536 128.224 27.72 128.224 30.1668V52.3268C128.224 54.7539 126.783 55.9182 124.731 55.9182C122.699 55.9182 121.238 54.7539 121.238 52.3268V51.7151H121.1C120.272 54.0436 117.844 55.78 114.588 55.78ZM117.213 50.3141C119.739 50.3141 121.258 48.2224 121.258 44.7297C121.258 41.2764 119.719 39.1255 117.213 39.1255C114.707 39.1255 113.187 41.2764 113.187 44.7297C113.187 48.2026 114.687 50.3141 117.213 50.3141Z" fill="#193CB9"/>
<path d="M90.001 55.78C85.9953 55.78 82.7788 53.1358 82.7788 49.2485C82.7788 45.223 85.8769 42.9734 91.4415 42.638L96.4734 42.342V41.1186C96.4734 39.4018 95.25 38.4546 93.4148 38.4546C91.9151 38.4546 91.0863 38.8887 89.7445 40.349C88.9354 41.158 88.0475 41.5527 86.9819 41.5527C85.3046 41.5527 84.1206 40.5068 84.1206 39.0071C84.1206 38.5138 84.1798 38.1586 84.3377 37.7442C85.2454 35.0803 88.8368 33.4622 93.77 33.4622C99.5122 33.4622 103.321 36.4024 103.321 40.7239V52.4057C103.321 54.7934 101.88 55.9182 99.8872 55.9182C98.0323 55.9182 96.7102 54.9513 96.5129 52.899V52.4057H96.3747C95.2105 54.5763 92.586 55.78 90.001 55.78ZM92.4874 50.9652C94.6185 50.9652 96.4734 49.6629 96.4734 47.7488V46.2688L92.5663 46.5253C90.7311 46.6635 89.6853 47.512 89.6853 48.7749C89.6853 50.1364 90.8101 50.9652 92.4874 50.9652Z" fill="#193CB9"/>
<path d="M76.6822 31.7849C74.6497 31.7849 73.0908 30.3049 73.0908 28.3711C73.0908 26.4176 74.6497 24.9376 76.6822 24.9376C78.7147 24.9376 80.2538 26.4176 80.2538 28.3711C80.2538 30.3049 78.7147 31.7849 76.6822 31.7849ZM76.6822 55.9182C74.4721 55.9182 73.1895 54.5961 73.1895 52.2873V37.1522C73.1895 34.8632 74.4721 33.5214 76.6822 33.5214C78.8725 33.5214 80.1749 34.8632 80.1749 37.1522V52.2873C80.1749 54.5961 78.8725 55.9182 76.6822 55.9182Z" fill="#193CB9"/>
<path d="M56.0621 55.78C50.7145 55.78 47.498 51.6164 47.498 44.6705C47.498 37.8034 50.7737 33.6596 56.141 33.6596C59.2588 33.6596 61.6267 35.3566 62.5739 37.764H62.7121V30.1668C62.7121 27.72 64.1525 26.536 66.2048 26.536C68.257 26.536 69.6975 27.72 69.6975 30.1668V52.3268C69.6975 54.7539 68.257 55.9182 66.2048 55.9182C64.1723 55.9182 62.7121 54.7539 62.7121 52.3268V51.7151H62.5739C61.7451 54.0436 59.318 55.78 56.0621 55.78ZM58.6866 50.3141C61.2124 50.3141 62.7318 48.2224 62.7318 44.7297C62.7318 41.2764 61.1926 39.1255 58.6866 39.1255C56.1805 39.1255 54.6611 41.2764 54.6611 44.7297C54.6611 48.2026 56.1608 50.3141 58.6866 50.3141Z" fill="#193CB9"/>
<path d="M35.1052 55.9774C28.2185 55.9774 24.1338 51.8137 24.1338 44.8283C24.1338 37.8626 28.2777 33.4622 34.829 33.4622C41.2224 33.4622 45.4255 37.685 45.4255 43.4865C45.4255 45.2624 44.4191 46.2491 42.6037 46.2491H30.9219V46.6437C30.9219 49.2485 32.6386 51.0244 35.1644 51.0244C37.0785 51.0244 38.4006 50.4127 39.9595 48.8341C40.6896 48.1434 41.2619 47.9066 42.1301 47.9066C43.5509 47.9066 44.7546 48.8144 44.7546 50.3535C44.7546 50.8863 44.5967 51.4191 44.281 51.9321C42.8602 54.4579 39.3873 55.9774 35.1052 55.9774ZM31.0205 42.2631H38.8347C38.7163 39.9346 37.1574 38.4349 34.9671 38.4349C32.7965 38.4349 31.1981 40.0135 31.0205 42.2631Z" fill="#193CB9"/>
<path d="M3.63084 55.8985C1.34183 55.8985 0 54.5369 0 52.1295V30.7786C0 28.3712 1.34183 26.9899 3.63084 26.9899H12.333C18.4502 26.9899 22.5941 30.9562 22.5941 37.0734C22.5941 43.1511 18.2331 47.1174 11.8989 47.1174H7.24194V52.1295C7.24194 54.5369 5.91985 55.8985 3.63084 55.8985ZM7.24194 41.6711H10.3795C13.4578 41.6711 15.2732 40.0728 15.2732 37.0931C15.2732 34.1332 13.4578 32.5349 10.4189 32.5349H7.24194V41.6711Z" fill="#193CB9"/>
<path d="M147.285 4.74821C147.697 3.5868 148.973 2.97961 150.134 3.39187L161.074 7.27518C162.236 7.68747 162.843 8.96304 162.431 10.1245C162.018 11.2859 160.743 11.8931 159.581 11.4808L148.641 7.59749C147.48 7.1852 146.873 5.90963 147.285 4.74821Z" fill="#193CB9"/>
<path d="M140.79 14.7111C141.185 13.5438 142.451 12.918 143.619 13.3131C144.786 13.7083 145.412 14.9743 145.017 16.1416L140.186 29.5732C139.791 30.7404 138.525 31.3663 137.358 30.9712C136.191 30.576 135.565 29.31 135.96 28.1427L140.79 14.7111Z" fill="#193CB9"/>
<path d="M155.467 20.2421C155.848 19.0701 157.107 18.429 158.28 18.8102C159.452 19.1913 160.093 20.4504 159.711 21.6224L156.885 29.523C156.504 30.695 155.245 31.3361 154.073 30.9549C152.901 30.5738 152.26 29.3147 152.641 28.1427L155.467 20.2421Z" fill="#193CB9"/>
<path d="M135.429 12.1821C135.84 11.0206 137.116 10.4125 138.278 10.8237L165.525 20.6609C166.686 21.0723 167.294 22.348 166.883 23.5096C166.472 24.6711 165.196 25.2792 164.034 24.868L136.787 15.0308C135.626 14.6194 135.018 13.3437 135.429 12.1821Z" fill="#193CB9"/>
<path d="M152.641 7.29113C153.06 6.13221 154.339 5.53132 155.498 5.94965C156.657 6.36833 157.258 7.64753 156.839 8.8065L153.578 17.8337C153.159 18.9926 151.88 19.5935 150.721 19.1752C149.562 18.7565 148.961 17.4773 149.38 16.3183L152.641 7.29113Z" fill="#193CB9"/>
<path d="M128.009 59.557C128.416 58.3937 129.689 57.7807 130.852 58.1877C132.016 58.5947 132.629 59.8677 132.222 61.031L130.911 64.7742L141.942 68.6865L146.207 57.4812C146.656 56.3336 147.951 55.7669 149.098 56.2155C150.246 56.6642 150.813 57.9589 150.364 59.1067L145.677 71.3934C144.985 73.1641 142.958 74.0036 141.217 73.2412L128.175 68.4491C126.572 67.7474 125.779 65.9284 126.357 64.2766L128.009 59.557Z" fill="#193CB9"/>
<path d="M133.209 69.6827C133.513 68.4884 134.727 67.7667 135.922 68.0707C137.116 68.3748 137.838 69.5894 137.534 70.7838L135.561 76.2597C135.257 77.454 134.043 78.1757 132.848 77.8717C131.654 77.5676 130.932 76.353 131.236 75.1587L133.209 69.6827Z" fill="#193CB9"/>
</svg>
